<svg width="15" height="15" viewBox="0 0 15 15" fill="none" xmlns="http://www.w3.org/2000/svg">
<path d="M13.75 6.13125C13.7138 6.01728 13.6458 5.91607 13.5538 5.83963C13.4619 5.76319 13.3499 5.71473 13.2313 5.7L9.66875 5.2125L8.05 2.20625C7.99645 2.10703 7.91705 2.02415 7.82023 1.96638C7.7234 1.90861 7.61275 1.87811 7.5 1.87811C7.38725 1.87811 7.2766 1.90861 7.17978 1.96638C7.08295 2.02415 7.00356 2.10703 6.95 2.20625L5.35625 5.2125L1.79375 5.7C1.67621 5.71585 1.56561 5.76482 1.47486 5.84118C1.38411 5.91754 1.31696 6.01815 1.28125 6.13125C1.2504 6.24147 1.25041 6.35804 1.28127 6.46825C1.31212 6.57846 1.37265 6.67809 1.45625 6.75625L4.0125 9.0875L3.3875 12.3625C3.35697 12.4812 3.36201 12.6063 3.40199 12.7221C3.44197 12.838 3.51514 12.9395 3.61238 13.0141C3.70963 13.0887 3.82666 13.1331 3.94892 13.1417C4.07118 13.1503 4.19327 13.1227 4.3 13.0625L7.5 11.4875L10.7 13.0625C10.7857 13.104 10.8798 13.1254 10.975 13.125C11.0675 13.1265 11.1591 13.1075 11.2433 13.0693C11.3276 13.0311 11.4023 12.9747 11.462 12.9042C11.5218 12.8336 11.5652 12.7507 11.5891 12.6613C11.6129 12.572 11.6167 12.4785 11.6 12.3875L10.975 9.1125L13.5313 6.78125C13.6271 6.70603 13.6989 6.60442 13.7377 6.48894C13.7766 6.37345 13.7809 6.24913 13.75 6.13125Z" fill="#69001F"/>
</svg>
