<svg width="30" height="10" viewBox="0 0 30 10" fill="none" xmlns="http://www.w3.org/2000/svg">
<path d="M14.854 0.329L12.851 9.696H10.427L12.433 0.329H14.854ZM25.051 6.377L26.326 2.859L27.061 6.377H25.051ZM27.754 9.696H29.996L28.04 0.329H25.971C25.968 0.329 25.964 0.329 25.961 0.329C25.502 0.329 25.108 0.609999 24.942 1.009L24.939 1.016L21.304 9.696H23.848L24.354 8.296H27.463L27.754 9.696ZM21.429 6.638C21.439 4.165 18.01 4.029 18.034 2.924C18.042 2.588 18.361 2.23 19.061 2.139C19.191 2.126 19.341 2.118 19.493 2.118C20.204 2.118 20.878 2.28 21.478 2.57L21.451 2.558L21.876 0.570999C21.203 0.309999 20.424 0.157999 19.61 0.154999H19.609C17.213 0.154999 15.528 1.43 15.513 3.253C15.498 4.601 16.716 5.352 17.635 5.802C18.58 6.261 18.897 6.556 18.892 6.965C18.886 7.595 18.14 7.871 17.442 7.882C17.41 7.883 17.371 7.883 17.333 7.883C16.462 7.883 15.642 7.664 14.926 7.277L14.953 7.29L14.514 9.342C15.3 9.657 16.211 9.839 17.165 9.839C17.18 9.839 17.195 9.839 17.21 9.839H17.208C19.754 9.839 21.419 8.582 21.428 6.635L21.429 6.638ZM11.391 0.329L7.46503 9.696H4.90303L2.97103 2.219C2.93403 1.855 2.71103 1.551 2.40103 1.399L2.39503 1.396C1.70703 1.058 0.907028 0.782999 0.0700284 0.609999L0.00402832 0.598999L0.0620284 0.327999H4.18603H4.18703C4.74903 0.327999 5.21503 0.738999 5.30203 1.276L5.30303 1.282L6.32403 6.703L8.84603 0.326999L11.391 0.329Z" fill="white"/>
</svg>
