<svg width="799" height="134" viewBox="0 0 799 134" fill="none" xmlns="http://www.w3.org/2000/svg">
<g filter="url(#filter0_i_810_151)">
<path d="M421.818 0.485474C384.346 0.485474 353.944 29.759 353.944 65.8882C353.944 104.299 383.025 133.013 421.818 133.013C459.643 133.013 489.508 103.92 489.508 66.6423C489.508 29.5865 459.842 0.485474 421.818 0.485474Z" fill="black"/>
</g>
<path d="M421.818 0.485474C384.346 0.485474 353.944 29.759 353.944 65.8882C353.944 104.299 383.025 133.013 421.818 133.013C459.643 133.013 489.508 103.92 489.508 66.6423C489.508 29.5865 459.842 0.485474 421.818 0.485474Z" fill="url(#paint0_linear_810_151)"/>
<path d="M36.489 2.87092H0V130.143H36.2993C55.5578 130.143 69.4861 125.579 81.7041 115.458C96.2016 103.434 104.8 85.3045 104.8 66.5683C104.8 28.9926 76.7287 2.87092 36.489 2.87092ZM65.5087 98.459C57.6623 105.539 47.5611 108.597 31.5086 108.597H24.8402V24.4213H31.5086C47.5611 24.4213 57.2754 27.2873 65.5087 34.7221C74.0943 42.3565 79.2152 54.1778 79.2152 66.386C79.2152 78.6188 74.0943 90.8541 65.5087 98.459ZM116.259 130.143H141.057V2.87092H116.259V130.143ZM201.77 51.6913C186.866 46.1688 182.48 42.5266 182.48 35.6807C182.48 27.6594 190.289 21.5578 200.994 21.5578C208.436 21.5578 214.543 24.6086 221.051 31.8389L234.011 14.882C223.325 5.51019 210.541 0.746685 196.595 0.746685C174.098 0.746685 156.91 16.4024 156.91 37.1839C156.91 54.7569 164.919 63.7171 188.209 72.1352C197.948 75.5532 202.899 77.8327 205.385 79.3901C210.346 82.6356 212.837 87.1995 212.837 92.5397C212.837 102.86 204.624 110.482 193.539 110.482C181.706 110.482 172.174 104.573 166.444 93.5057L150.434 108.982C161.861 125.751 175.604 133.218 194.518 133.218C220.28 133.218 238.4 116.02 238.4 91.4086C238.4 71.1766 230.023 62.0094 201.77 51.6913ZM246.221 66.5683C246.221 104.014 275.621 133.013 313.418 133.013C324.103 133.013 333.263 130.902 344.535 125.579V96.3643C334.596 106.298 325.816 110.295 314.552 110.295C289.556 110.295 271.796 92.1602 271.796 66.386C271.796 41.9696 290.111 22.6913 313.418 22.6913C325.232 22.6913 334.217 26.8881 344.535 37.0016V7.78968C333.657 2.27209 324.673 0 313.985 0C276.379 0 246.221 29.5865 246.221 66.5683ZM545.677 88.3627L511.704 2.87092H484.601L538.631 133.393H551.98L606.954 2.87092H580.051L545.677 88.3627ZM618.238 130.143H688.653V108.597H643.046V74.22H686.909V52.6697H643.046V24.4213H688.653V2.87092H618.238V130.143ZM786.918 40.4319C786.918 16.5897 770.528 2.87092 741.882 2.87092H705.043V130.143H729.879V78.9909H733.129L767.464 130.143H798.002L757.898 76.5315C776.629 72.702 786.918 59.9098 786.918 40.4319ZM737.102 61.45H729.879V22.8836H737.498C752.991 22.8836 761.385 29.3918 761.385 41.7774C761.385 54.5548 752.991 61.45 737.102 61.45Z" fill="#0B1015"/>
<defs>
<filter id="filter0_i_810_151" x="353.944" y="0.485474" width="140.251" height="137.216" filterUnits="userSpaceOnUse" color-interpolation-filters="sRGB">
<feFlood flood-opacity="0" result="BackgroundImageFix"/>
<feBlend mode="normal" in="SourceGraphic" in2="BackgroundImageFix" result="shape"/>
<feColorMatrix in="SourceAlpha" type="matrix" values="0 0 0 0 0 0 0 0 0 0 0 0 0 0 0 0 0 0 127 0" result="hardAlpha"/>
<feOffset dx="4.6875" dy="4.6875"/>
<feGaussianBlur stdDeviation="6.25"/>
<feComposite in2="hardAlpha" operator="arithmetic" k2="-1" k3="1"/>
<feColorMatrix type="matrix" values="0 0 0 0 0 0 0 0 0 0 0 0 0 0 0 0 0 0 0.5 0"/>
<feBlend mode="normal" in2="shape" result="effect1_innerShadow_810_151"/>
</filter>
<linearGradient id="paint0_linear_810_151" x1="380.263" y1="12.4967" x2="471.864" y2="109.243" gradientUnits="userSpaceOnUse">
<stop stop-color="#F34F26"/>
<stop offset="1" stop-color="#F69E35"/>
</linearGradient>
</defs>
</svg>
