<svg width="80" height="49" viewBox="0 0 80 49" fill="none" xmlns="http://www.w3.org/2000/svg">
<path d="M47.8677 24.4C47.8677 37.6189 37.1516 48.3339 23.9333 48.3339C10.7151 48.3339 0 37.6189 0 24.4C0 11.1823 10.7149 0.466133 23.9333 0.466133C37.1516 0.466133 47.8677 11.1823 47.8677 24.4Z" fill="#D9222A"/>
<path d="M56.0655 0.466133C49.8816 0.466133 44.2465 2.81227 39.9988 6.66173C39.1339 7.44613 38.326 8.29347 37.5821 9.19453H42.4177C43.0788 9.9984 43.6877 10.844 44.2423 11.7295H35.7577C35.2493 12.5433 34.7879 13.3889 34.3788 14.2639H45.6205C46.0045 15.0851 46.3433 15.93 46.634 16.7977H33.3656C33.0889 17.6232 32.8561 18.4683 32.67 19.3321H47.3288C47.6805 20.9655 47.8677 22.6611 47.8677 24.3999C47.8677 27.0577 47.4339 29.6148 46.6339 32.0027H33.3655C33.6555 32.8709 33.9944 33.7165 34.3783 34.5371H45.6204C45.2105 35.4121 44.75 36.2576 44.2409 37.072H35.7576C36.3115 37.956 36.9215 38.8027 37.5821 39.6048H42.4167C41.6739 40.5076 40.8655 41.356 39.9993 42.1399C44.2471 45.9887 49.8816 48.3337 56.0655 48.3337C69.2839 48.3339 80 37.6189 80 24.4C80 11.1828 69.2839 0.466133 56.0655 0.466133Z" fill="#EE9F2D"/>
<path d="M76.8099 37.7412C76.8099 37.3145 77.1555 36.9677 77.5827 36.9677C78.0099 36.9677 78.3555 37.3145 78.3555 37.7412C78.3555 38.1677 78.0099 38.5145 77.5827 38.5145C77.1555 38.5145 76.8099 38.1677 76.8099 37.7412ZM77.5827 38.3289C77.9072 38.3289 78.1704 38.0656 78.1704 37.7412C78.1704 37.4161 77.9071 37.154 77.5827 37.154C77.2576 37.154 76.9955 37.4163 76.9955 37.7412C76.9955 38.0656 77.2577 38.3289 77.5827 38.3289ZM77.4783 38.0811H77.32V37.4016H77.6067C77.6667 37.4016 77.7277 37.4016 77.7805 37.4355C77.8356 37.4727 77.8667 37.5383 77.8667 37.606C77.8667 37.6821 77.8216 37.7532 77.7488 37.7811L77.8739 38.0811H77.6984L77.5945 37.8121H77.4784V38.0811H77.4783ZM77.4783 37.6956H77.566C77.5988 37.6956 77.6333 37.6984 77.6628 37.6823C77.6888 37.6656 77.7023 37.6344 77.7023 37.6044C77.7023 37.5784 77.6861 37.5483 77.6639 37.5355C77.6361 37.5183 77.5923 37.522 77.5628 37.522H77.4783V37.6956Z" fill="black"/>
<path d="M18.3449 27.0205C18.0721 26.9888 17.9523 26.9804 17.7649 26.9804C16.2921 26.9804 15.5465 27.4855 15.5465 28.4828C15.5465 29.0977 15.9104 29.4888 16.4781 29.4888C17.5367 29.4888 18.2993 28.4811 18.3449 27.0205ZM20.2344 31.42H18.0816L18.1311 30.3965C17.4743 31.2053 16.5983 31.5899 15.4076 31.5899C13.9992 31.5899 13.0337 30.4899 13.0337 28.8927C13.0337 26.4895 14.7132 25.0872 17.596 25.0872C17.8904 25.0872 18.2683 25.1137 18.6548 25.1632C18.7353 24.8377 18.7565 24.6983 18.7565 24.5232C18.7565 23.8688 18.3037 23.6249 17.0899 23.6249C15.8188 23.6105 14.7704 23.9277 14.3399 24.0693C14.3671 23.9055 14.6999 21.8481 14.6999 21.8481C15.9948 21.4687 16.8487 21.3259 17.8099 21.3259C20.0408 21.3259 21.2227 22.3276 21.2204 24.2208C21.2248 24.7281 21.1408 25.3541 21.0099 26.1769C20.7844 27.6079 20.3005 30.6728 20.2344 31.42Z" fill="black"/>
<path d="M11.9467 31.42H9.3484L10.8367 22.0872L7.51333 31.42H5.7428L5.52387 22.1405L3.95947 31.42H1.5272L3.5588 19.2793H7.29493L7.5216 26.0749L9.80053 19.2793H13.9561L11.9467 31.42Z" fill="black"/>
<path d="M59.2765 27.0205C59.0049 26.9888 58.8844 26.9804 58.6976 26.9804C57.2255 26.9804 56.4799 27.4855 56.4799 28.4828C56.4799 29.0977 56.8432 29.4888 57.4109 29.4888C58.4695 29.4888 59.2327 28.4811 59.2765 27.0205ZM61.1677 31.42H59.0149L59.0637 30.3965C58.4071 31.2053 57.5304 31.5899 56.3409 31.5899C54.9321 31.5899 53.9676 30.4899 53.9676 28.8927C53.9676 26.4895 55.646 25.0872 58.5293 25.0872C58.8237 25.0872 59.2009 25.1137 59.5871 25.1632C59.6676 24.8377 59.6888 24.6983 59.6888 24.5232C59.6888 23.8688 59.2365 23.6249 58.0227 23.6249C56.7516 23.6105 55.7044 23.9277 55.2721 24.0693C55.2993 23.9055 55.6333 21.8481 55.6333 21.8481C56.9283 21.4687 57.7816 21.3259 58.7417 21.3259C60.9739 21.3259 62.1556 22.3276 62.1533 24.2208C62.1577 24.7281 62.0739 25.3541 61.9428 26.1769C61.7183 27.6079 61.2333 30.6728 61.1677 31.42Z" fill="black"/>
<path d="M31.7821 31.27C31.0711 31.4939 30.5167 31.5899 29.9155 31.5899C28.5872 31.5899 27.8623 30.8265 27.8623 29.4209C27.8433 28.9848 28.0533 27.8371 28.2184 26.7893C28.3684 25.8671 29.3449 20.0521 29.3449 20.0521H31.9277L31.626 21.5465H33.186L32.8337 23.9193H31.2681C30.9681 25.7971 30.5409 28.136 30.536 28.446C30.536 28.9548 30.8076 29.1771 31.4255 29.1771C31.7216 29.1771 31.9509 29.1469 32.126 29.0837L31.7821 31.27Z" fill="black"/>
<path d="M39.7011 31.19C38.8139 31.4612 37.9577 31.5923 37.0505 31.59C34.1593 31.5872 32.6523 30.0772 32.6523 27.1856C32.6523 23.8105 34.5695 21.3261 37.1721 21.3261C39.3016 21.3261 40.6616 22.7172 40.6616 24.8989C40.6616 25.6228 40.5683 26.3295 40.3432 27.3272H35.2C35.026 28.7593 35.9427 29.3561 37.4449 29.3561C38.3695 29.3561 39.2033 29.1656 40.1305 28.7344L39.7011 31.19ZM38.2493 25.3367C38.2637 25.1311 38.5233 23.5744 37.0476 23.5744C36.2249 23.5744 35.6365 24.2016 35.3971 25.3367H38.2493Z" fill="black"/>
<path d="M21.7928 24.6677C21.7928 25.9167 22.3984 26.7779 23.7717 27.4245C24.824 27.9189 24.9867 28.0657 24.9867 28.5139C24.9867 29.1295 24.5228 29.4073 23.4945 29.4073C22.7195 29.4073 21.9984 29.2863 21.1668 29.0177C21.1668 29.0177 20.8251 31.1939 20.8095 31.2979C21.4001 31.4268 21.9268 31.5461 23.5133 31.59C26.2551 31.59 27.5212 30.5461 27.5212 28.29C27.5212 26.9333 26.9911 26.1372 25.6896 25.5388C24.6001 25.0388 24.4752 24.9272 24.4752 24.4661C24.4752 23.9323 24.9068 23.66 25.7468 23.66C26.2568 23.66 26.9535 23.7144 27.6135 23.8083L27.9835 21.5183C27.3107 21.4116 26.2907 21.326 25.6968 21.326C22.79 21.3261 21.7839 22.8444 21.7928 24.6677Z" fill="black"/>
<path d="M52.3377 21.5856C53.0593 21.5856 53.7321 21.7751 54.6593 22.2417L55.0844 19.6067C54.7039 19.4572 53.3639 18.58 52.2288 18.58C50.49 18.58 49.02 19.4428 47.9861 20.8667C46.4783 20.3672 45.8584 21.3767 45.0984 22.3823L44.4233 22.5395C44.4744 22.2084 44.5205 21.8795 44.5049 21.5467H42.1188C41.7927 24.6023 41.2149 27.6971 40.7627 30.7567L40.6448 31.4201H43.2443C43.6781 28.6011 43.9159 26.7961 44.0604 25.5745L45.0392 25.03C45.1855 24.4863 45.6431 24.3023 46.5615 24.3245C46.4416 24.9689 46.3771 25.6467 46.3771 26.3491C46.3771 29.5791 48.1197 31.5901 50.9171 31.5901C51.6376 31.5901 52.2559 31.4952 53.2132 31.2357L53.6704 28.4679C52.8093 28.8919 52.1027 29.0913 51.4627 29.0913C49.9521 29.0913 49.0381 27.9763 49.0381 26.1335C49.0383 23.46 50.3977 21.5856 52.3377 21.5856Z" fill="black"/>
<path d="M12.6944 30.6989H10.0956L11.5851 21.3672L8.2616 30.6989H6.49054L6.2716 21.4205L4.7072 30.6989H2.27507L4.30667 18.56H8.0428L8.14787 26.0749L10.6684 18.56H14.704L12.6944 30.6989Z" fill="white"/>
<path d="M74.3361 19.2795L73.76 22.7873C73.0495 21.8523 72.2861 21.1756 71.2784 21.1756C69.9673 21.1756 68.774 22.1696 67.9928 23.6323C66.9051 23.4067 65.78 23.0239 65.78 23.0239L65.7795 23.0328C65.8672 22.2149 65.9023 21.7161 65.8944 21.5467H63.5077C63.1827 24.6023 62.6049 27.6971 62.1533 30.7567L62.0344 31.4201H64.6333C64.9844 29.1407 65.2532 27.2479 65.4511 25.7467C66.3388 24.9445 66.7833 24.2445 67.6805 24.2912C67.2833 25.2517 67.0505 26.3584 67.0505 27.4935C67.0505 29.9619 68.2993 31.5901 70.1883 31.5901C71.1405 31.5901 71.8711 31.2619 72.5839 30.5007L72.4621 31.4185H74.92L76.8989 19.2796H74.3361V19.2795ZM71.0867 29.1383C70.2023 29.1383 69.7556 28.4839 69.7556 27.1921C69.7556 25.2516 70.5917 23.8755 71.7705 23.8755C72.6633 23.8755 73.1467 24.556 73.1467 25.81C73.1467 27.7672 72.2972 29.1383 71.0867 29.1383Z" fill="black"/>
<path d="M19.0923 26.3011C18.82 26.2696 18.6995 26.2612 18.5128 26.2612C17.04 26.2612 16.2949 26.7661 16.2949 27.7633C16.2949 28.3772 16.6588 28.7696 17.2255 28.7696C18.2851 28.7695 19.0479 27.7617 19.0923 26.3011ZM20.9827 30.6989H18.8299L18.8788 29.6772C18.2227 30.4844 17.3455 30.8705 16.156 30.8705C14.7471 30.8705 13.782 29.7705 13.782 28.1733C13.782 25.7689 15.4609 24.3677 18.3443 24.3677C18.6387 24.3677 19.0165 24.3944 19.4027 24.4439C19.4832 24.1184 19.5044 23.9789 19.5044 23.8028C19.5044 23.1483 19.0521 22.9056 17.8383 22.9056C16.5667 22.8912 15.5188 23.2084 15.0877 23.3484C15.1149 23.1851 15.4477 21.1301 15.4477 21.1301C16.7421 20.7491 17.5971 20.6063 18.5571 20.6063C20.7887 20.6063 21.9709 21.6085 21.9688 23.5001C21.9727 24.0096 21.8883 24.6352 21.7576 25.4568C21.5327 26.8867 21.0484 29.9533 20.9827 30.6989Z" fill="white"/>
<path d="M55.8327 18.8867L55.4072 21.5223C54.4805 21.0561 53.8072 20.8663 53.0861 20.8663C51.1461 20.8663 49.7861 22.7407 49.7861 25.4139C49.7861 27.2567 50.7005 28.3712 52.2107 28.3712C52.8507 28.3712 53.5568 28.1723 54.4179 27.7479L53.9617 30.5145C53.0039 30.7756 52.3863 30.8707 51.6651 30.8707C48.8683 30.8707 47.1251 28.8595 47.1251 25.6295C47.1251 21.2895 49.5328 18.2561 52.9767 18.2561C54.1111 18.2561 55.4516 18.7372 55.8327 18.8867Z" fill="white"/>
<path d="M60.0251 26.3011C59.7528 26.2696 59.6328 26.2612 59.4455 26.2612C57.9733 26.2612 57.2277 26.7661 57.2277 27.7633C57.2277 28.3772 57.5916 28.7696 58.1588 28.7696C59.2172 28.7695 59.9805 27.7617 60.0251 26.3011ZM61.9155 30.6989H59.7621L59.8116 29.6772C59.1549 30.4844 58.2783 30.8705 57.0888 30.8705C55.6804 30.8705 54.7149 29.7705 54.7149 28.1733C54.7149 25.7689 56.3944 24.3677 59.2765 24.3677C59.5716 24.3677 59.9488 24.3944 60.3355 24.4439C60.4155 24.1184 60.4371 23.9789 60.4371 23.8028C60.4371 23.1483 59.9848 22.9056 58.7711 22.9056C57.5 22.8912 56.4516 23.2084 56.0204 23.3484C56.0476 23.1851 56.3809 21.1301 56.3809 21.1301C57.6755 20.7491 58.5299 20.6063 59.4899 20.6063C61.722 20.6063 62.9037 21.6085 62.9009 23.5001C62.9053 24.0096 62.8215 24.6352 62.6904 25.4568C62.466 26.8867 61.9805 29.9533 61.9155 30.6989Z" fill="white"/>
<path d="M32.53 30.5495C31.8183 30.7733 31.2639 30.8705 30.6633 30.8705C29.3351 30.8705 28.6101 30.1072 28.6101 28.7016C28.5917 28.2644 28.8019 27.1176 28.9668 26.07C29.1161 25.1465 30.0928 19.3321 30.0928 19.3321H32.6751L32.3739 20.8271H33.6993L33.3465 23.1988H32.0165C31.7165 25.0777 31.2881 27.4149 31.2837 27.7255C31.2837 28.2361 31.5559 28.4565 32.1732 28.4565C32.4693 28.4565 32.6983 28.4277 32.8737 28.3644L32.53 30.5495Z" fill="white"/>
<path d="M40.4488 30.4705C39.5621 30.7416 38.7049 30.8721 37.7983 30.8705C34.9071 30.8677 33.4 29.3577 33.4 26.4661C33.4 23.09 35.3172 20.6061 37.9199 20.6061C40.0493 20.6061 41.4093 21.9967 41.4093 24.1795C41.4093 24.904 41.316 25.6105 41.0916 26.6079H35.9483C35.7743 28.04 36.6909 28.6373 38.1932 28.6373C39.1172 28.6373 39.9516 28.4461 40.8783 28.0139L40.4488 30.4705ZM38.9967 24.6156C39.0121 24.4105 39.2712 22.8533 37.7949 22.8533C36.9727 22.8533 36.3844 23.4823 36.1449 24.6156H38.9967Z" fill="white"/>
<path d="M22.5405 23.9483C22.5405 25.1971 23.1461 26.0572 24.5195 26.7049C25.5717 27.1995 25.7344 27.3467 25.7344 27.7945C25.7344 28.41 25.27 28.6877 24.2427 28.6877C23.4672 28.6877 22.746 28.5667 21.9137 28.2983C21.9137 28.2983 21.5732 30.4744 21.5576 30.5784C22.1471 30.7073 22.6743 30.8251 24.2609 30.8705C27.0031 30.8705 28.2688 29.8267 28.2688 27.5711C28.2688 26.2137 27.7393 25.4177 26.4372 24.8195C25.3483 24.3183 25.2221 24.2083 25.2221 23.7467C25.2221 23.2133 25.6549 22.9388 26.4944 22.9388C27.0039 22.9388 27.7005 22.9949 28.3616 23.0888L28.7311 20.7983C28.0588 20.6916 27.0388 20.6061 26.4449 20.6061C23.5377 20.6061 22.5321 22.1233 22.5405 23.9483Z" fill="white"/>
<path d="M75.6677 30.6989H73.2093L73.3316 29.7799C72.6188 30.5421 71.8883 30.8705 70.936 30.8705C69.0471 30.8705 67.7988 29.2421 67.7988 26.7739C67.7988 23.4899 69.7349 20.7216 72.0265 20.7216C73.0344 20.7216 73.7971 21.1332 74.5071 22.0677L75.0837 18.56H77.6465L75.6677 30.6989ZM71.8349 28.4177C73.0449 28.4177 73.8949 27.0467 73.8949 25.0907C73.8949 23.8367 73.4111 23.1561 72.5183 23.1561C71.34 23.1561 70.5028 24.5316 70.5028 26.4728C70.5028 27.7644 70.9505 28.4177 71.8349 28.4177Z" fill="white"/>
<path d="M64.256 20.8272C63.9305 23.8828 63.3528 26.9779 62.9011 30.0356L62.7821 30.6991H65.3809C66.3105 24.6624 66.5355 23.4835 67.9927 23.6312C68.2249 22.3956 68.6571 21.3135 68.9793 20.7673C67.8909 20.5407 67.2832 21.1557 66.4876 22.324C66.5504 21.8189 66.6653 21.3284 66.6425 20.8273H64.256" fill="white"/>
<path d="M42.8667 20.8272C42.5405 23.8828 41.9628 26.9779 41.5111 30.0356L41.3927 30.6991H43.9927C44.9211 24.6624 45.1455 23.4835 46.6021 23.6312C46.8355 22.3956 47.2676 21.3135 47.5887 20.7673C46.5015 20.5407 45.8931 21.1557 45.0981 22.324C45.1609 21.8189 45.2748 21.3284 45.2531 20.8273H42.8667" fill="white"/>
<path d="M76.8089 29.926C76.8089 29.4977 77.1551 29.1528 77.5817 29.1528C78.0089 29.1528 78.3545 29.4977 78.3545 29.926C78.3545 30.3521 78.0089 30.6989 77.5817 30.6989C77.1549 30.6989 76.8089 30.3523 76.8089 29.926ZM77.5817 30.5133C77.9068 30.5133 78.1689 30.25 78.1689 29.9261C78.1689 29.6017 77.9067 29.3384 77.5817 29.3384C77.2572 29.3384 76.994 29.6019 76.994 29.9261C76.9939 30.25 77.2572 30.5133 77.5817 30.5133ZM77.4772 30.2639H77.3188V29.5863H77.6059C77.6653 29.5863 77.7271 29.5873 77.7787 29.6201C77.8343 29.6579 77.8659 29.7223 77.8659 29.79C77.8659 29.8667 77.8209 29.9383 77.7475 29.9656L77.8731 30.2637H77.6969L77.5931 29.996H77.4771V30.2639H77.4772ZM77.4772 29.88H77.5643C77.5971 29.88 77.6327 29.8824 77.6615 29.8667C77.6876 29.85 77.7009 29.8184 77.7009 29.7883C77.7009 29.7632 77.6855 29.7333 77.6627 29.7184C77.6355 29.7029 77.5904 29.7073 77.5609 29.7073H77.4771V29.88H77.4772Z" fill="white"/>
</svg>
