<svg width="50" height="50" viewBox="0 0 50 50" fill="none" xmlns="http://www.w3.org/2000/svg">
<path d="M23.5417 28.5417C23.5417 27.4375 22.5625 26.4583 21.4583 26.4583H6.25C5.14583 26.4583 4.16667 27.4375 4.16667 28.5417V39.5833C4.16667 40.6875 5.14583 41.6667 6.25 41.6667H21.4583C22.5625 41.6667 23.5417 40.6875 23.5417 39.5833V28.5417ZM45.8333 28.5417C45.8333 27.4375 44.8542 26.4583 43.75 26.4583H28.5417C27.4375 26.4583 26.4583 27.4375 26.4583 28.5417V39.5833C26.4583 40.6875 27.4375 41.6667 28.5417 41.6667H43.75C44.8542 41.6667 45.8333 40.6875 45.8333 39.5833V28.5417ZM45.8333 10.4167C45.8333 9.31251 44.8542 8.33334 43.75 8.33334H28.5417C27.4375 8.33334 26.4583 9.31251 26.4583 10.4167V21.4583C26.4583 22.5625 27.4375 23.5417 28.5417 23.5417H43.75C44.8542 23.5417 45.8333 22.5625 45.8333 21.4583V10.4167ZM23.5417 10.4167C23.5417 9.31251 22.5625 8.33334 21.4583 8.33334H6.25C5.14583 8.33334 4.16667 9.31251 4.16667 10.4167V21.4583C4.16667 22.5625 5.14583 23.5417 6.25 23.5417H21.4583C22.5625 23.5417 23.5417 22.5625 23.5417 21.4583V10.4167Z" fill="#69001F"/>
</svg>
