<svg width="50" height="50" viewBox="0 0 50 50" fill="none" xmlns="http://www.w3.org/2000/svg">
<path d="M30.9687 34.5833C30.9687 33.4792 29.9896 32.5 28.8854 32.5H21.1146C20.0104 32.5 19.0312 33.4792 19.0312 34.5833V39.5833C19.0312 40.6875 20.0104 41.6667 21.1146 41.6667H28.8854C29.9896 41.6667 30.9687 40.6875 30.9687 39.5833V34.5833ZM16.1042 34.5833C16.1042 33.4792 15.125 32.5 14.0208 32.5H6.25C5.14583 32.5 4.16666 33.4792 4.16666 34.5833V39.5833C4.16666 40.6875 5.14583 41.6667 6.25 41.6667H14.0208C15.125 41.6667 16.1042 40.6875 16.1042 39.5833V34.5833ZM45.8333 34.5833C45.8333 33.4792 44.8542 32.5 43.75 32.5H35.9792C34.875 32.5 33.8958 33.4792 33.8958 34.5833V39.5833C33.8958 40.6875 34.875 41.6667 35.9792 41.6667H43.75C44.8542 41.6667 45.8333 40.6875 45.8333 39.5833V34.5833ZM30.9687 22.5C30.9687 21.3958 29.9896 20.4167 28.8854 20.4167H21.1146C20.0104 20.4167 19.0312 21.3958 19.0312 22.5V27.5C19.0312 28.6042 20.0104 29.5833 21.1146 29.5833H28.8854C29.9896 29.5833 30.9687 28.6042 30.9687 27.5V22.5ZM16.1042 22.5C16.1042 21.3958 15.125 20.4167 14.0208 20.4167H6.25C5.14583 20.4167 4.16666 21.3958 4.16666 22.5V27.5C4.16666 28.6042 5.14583 29.5833 6.25 29.5833H14.0208C15.125 29.5833 16.1042 28.6042 16.1042 27.5V22.5ZM45.8333 22.5C45.8333 21.3958 44.8542 20.4167 43.75 20.4167H35.9792C34.875 20.4167 33.8958 21.3958 33.8958 22.5V27.5C33.8958 28.6042 34.875 29.5833 35.9792 29.5833H43.75C44.8542 29.5833 45.8333 28.6042 45.8333 27.5V22.5ZM30.9687 10.4167C30.9687 9.31251 29.9896 8.33334 28.8854 8.33334H21.1146C20.0104 8.33334 19.0312 9.31251 19.0312 10.4167V15.4167C19.0312 16.5208 20.0104 17.5 21.1146 17.5H28.8854C29.9896 17.5 30.9687 16.5208 30.9687 15.4167V10.4167ZM16.1042 10.4167C16.1042 9.31251 15.125 8.33334 14.0208 8.33334H6.25C5.14583 8.33334 4.16666 9.31251 4.16666 10.4167V15.4167C4.16666 16.5208 5.14583 17.5 6.25 17.5H14.0208C15.125 17.5 16.1042 16.5208 16.1042 15.4167V10.4167ZM45.8333 10.4167C45.8333 9.31251 44.8542 8.33334 43.75 8.33334H35.9792C34.875 8.33334 33.8958 9.31251 33.8958 10.4167V15.4167C33.8958 16.5208 34.875 17.5 35.9792 17.5H43.75C44.8542 17.5 45.8333 16.5208 45.8333 15.4167V10.4167Z" fill="#69001F"/>
</svg>
